<svg width="322" height="79" viewBox="0 0 322 79" fill="none" xmlns="http://www.w3.org/2000/svg">
<path d="M305.662 52.6308C304.826 53.0268 304.012 53.3348 303.22 53.5548C302.428 53.7748 301.504 53.9948 300.448 54.2148C297.676 54.7868 295.674 55.1168 294.442 55.2048C294.574 55.6448 295.234 56.1728 296.422 56.7888C297.214 56.9208 298.072 56.8108 298.996 56.4588C299.964 56.0628 300.954 55.7108 301.966 55.4028C303.022 55.0508 304.033 54.8528 305.001 54.8088C306.013 54.7648 306.96 55.1388 307.84 55.9308C308.192 56.7228 308.478 57.1848 308.698 57.3168C308.918 57.4488 309.116 57.5148 309.292 57.5148C309.468 57.5148 309.666 57.5808 309.885 57.7128C310.105 57.8448 310.414 58.3508 310.81 59.2308C311.25 60.1108 311.139 60.9468 310.479 61.7388C309.863 62.5308 308.896 63.2128 307.576 63.7848C306.256 64.3568 304.716 64.8188 302.956 65.1708C301.196 65.5228 299.436 65.7648 297.676 65.8968C293.716 66.2048 290.702 65.8968 288.634 64.9728C285.642 63.9608 283.706 61.9588 282.826 58.9668C281.682 55.0068 282.32 50.3868 284.74 45.1068C285.84 42.6428 287.577 40.0028 289.953 37.1868C292.021 34.7228 294.332 32.9408 296.884 31.8408C299.832 30.5648 302.912 29.9708 306.124 30.0588C309.556 30.1468 311.931 31.6428 313.251 34.5468C313.911 36.0868 314.043 38.2428 313.647 41.0148C312.943 44.6228 312.02 47.1748 310.876 48.6708C309.732 50.1228 307.994 51.4428 305.662 52.6308ZM301.833 42.2028C299.501 41.7188 297.676 43.0388 296.356 46.1628C295.96 46.9988 295.651 47.8788 295.431 48.8028C296.927 48.9788 298.512 48.1428 300.184 46.2948C300.8 45.5468 301.261 44.7988 301.569 44.0508C301.877 43.2588 301.965 42.6428 301.833 42.2028Z" fill="white"/>
<path d="M276.163 59.8248C275.899 60.7488 275.591 61.5628 275.239 62.2668C274.887 62.9708 274.359 63.6308 273.655 64.2468C272.951 64.8628 272.115 65.4348 271.147 65.9628C270.179 66.5348 269.255 66.9308 268.375 67.1508C266.351 67.5908 265.295 66.9968 265.207 65.3688C265.075 64.9288 264.789 64.6648 264.349 64.5768C263.953 64.5328 263.579 64.4228 263.227 64.2468C262.303 63.8508 262.039 62.7728 262.435 61.0128C263.139 58.5928 263.909 55.6668 264.745 52.2348C265.581 48.7588 266.659 44.9528 267.979 40.8168C271.103 30.7848 274.975 21.7428 279.595 13.6908C279.903 13.2948 280.255 12.7888 280.651 12.1728C281.047 11.5128 281.553 10.9188 282.169 10.3908C283.709 8.98276 285.601 8.65275 287.845 9.40076C287.801 9.97276 287.933 10.5008 288.241 10.9848C288.549 11.4248 288.901 11.8868 289.297 12.3708C290.309 13.5148 290.771 14.5488 290.683 15.4728C286.019 26.5168 281.817 38.8588 278.077 52.4988C277.637 54.0828 277.285 55.4688 277.021 56.6568C276.757 57.8448 276.471 58.9008 276.163 59.8248Z" fill="white"/>
<path d="M240.835 62.5968L239.185 64.1148C238.305 64.7308 237.447 65.1048 236.611 65.2368L236.677 65.3028L236.347 65.5668C233.223 65.8308 230.913 65.1488 229.417 63.5208C227.877 61.8048 227.547 59.5608 228.427 56.7888C230.363 45.8328 233.069 35.6688 236.545 26.2968C238.877 19.9608 241.121 15.7148 243.277 13.5588C244.421 12.4588 245.477 12.1288 246.445 12.5688C246.709 11.5128 247.171 10.6988 247.831 10.1268C248.491 9.51075 249.217 9.15876 250.009 9.07076C250.801 8.93876 251.571 9.07075 252.319 9.46675C253.067 9.81875 253.639 10.4788 254.035 11.4468C254.475 12.4148 254.651 13.3608 254.563 14.2848C254.519 15.1648 254.321 16.0448 253.969 16.9248C253.661 17.7608 253.265 18.5968 252.781 19.4328C252.341 20.2688 251.923 21.1048 251.527 21.9408C248.711 28.7168 246.709 33.7328 245.521 36.9888L246.115 36.5928C249.019 34.6568 252.121 33.7988 255.421 34.0188C256.873 34.1508 258.171 34.5468 259.315 35.2068C260.503 35.8228 261.361 36.7688 261.889 38.0448C262.461 39.3208 262.681 40.9708 262.549 42.9948C262.461 44.9748 262.087 47.0428 261.427 49.1988C260.767 51.3108 259.865 53.3788 258.721 55.4028C257.621 57.4268 256.389 59.1868 255.025 60.6828C251.945 64.0708 248.975 65.3468 246.115 64.5108C244.883 64.6868 243.453 64.1148 241.825 62.7948C241.473 62.4868 241.143 62.2448 240.835 62.0688V62.5968ZM242.617 57.8448C243.277 57.0968 244.399 55.6888 245.983 53.6208C247.611 51.5528 248.689 49.9468 249.217 48.8028C249.789 47.6148 249.657 46.5148 248.821 45.5028C247.985 44.4468 246.929 45.2388 245.653 47.8788C243.629 52.1028 242.617 55.4248 242.617 57.8448Z" fill="white"/>
<path d="M186.807 33.6888C186.895 32.8528 187.423 32.1708 188.391 31.6428C189.359 31.1148 190.437 30.8508 191.625 30.8508C192.813 30.8508 193.957 31.1368 195.057 31.7088C196.201 32.2368 196.971 33.1608 197.367 34.4808C201.107 31.2248 204.517 29.9708 207.597 30.7188C208.653 30.9388 209.555 31.5548 210.303 32.5668C212.547 30.4108 215.033 29.0028 217.761 28.3428C221.193 28.2108 223.657 29.0028 225.153 30.7188C225.373 30.9388 225.593 31.1808 225.813 31.4448C226.429 32.1048 226.781 32.5448 226.869 32.7648C227.661 33.9968 227.881 36.8348 227.529 41.2788C227.045 47.0428 225.945 52.8288 224.229 58.6368C223.305 61.5848 222.469 63.1028 221.721 63.1908C221.281 63.2788 220.863 63.2788 220.467 63.1908C220.115 63.1028 219.785 63.0368 219.477 62.9928C219.213 62.9928 219.059 63.2568 219.015 63.7848C218.135 64.9288 216.793 65.5008 214.989 65.5008C213.229 65.5008 211.733 64.9508 210.501 63.8508C209.137 62.7068 208.653 61.3648 209.049 59.8248C209.489 58.2408 209.973 56.6348 210.501 55.0068C211.029 53.3348 211.601 51.6188 212.217 49.8588C213.273 46.7788 214.439 43.5668 215.715 40.2228C214.791 41.2788 213.537 43.2808 211.953 46.2288C210.369 49.1328 209.379 50.8708 208.983 51.4428C208.235 52.9388 207.619 54.1268 207.135 55.0068C206.651 55.8428 205.991 56.5248 205.155 57.0528C204.363 57.5368 203.615 57.8448 202.911 57.9768C202.251 58.1088 201.613 58.1308 200.997 58.0428C199.545 57.8228 198.511 57.2068 197.895 56.1948C197.763 55.8428 197.631 55.4908 197.499 55.1388C197.367 54.7868 197.257 54.3028 197.169 53.6868C197.037 52.3228 197.213 50.1008 197.697 47.0208L197.565 47.2188C198.093 46.6908 198.269 46.5588 198.093 46.8228C196.333 49.3308 195.277 50.9368 194.925 51.6408C194.573 52.3448 194.199 53.1368 193.803 54.0168C193.407 54.8528 192.945 55.8428 192.417 56.9868C191.889 58.0868 191.471 59.0768 191.163 59.9568C190.855 60.8368 190.481 61.6948 190.041 62.5308C188.061 65.9628 184.585 67.3488 179.613 66.6888C178.557 66.5568 177.655 66.2928 176.907 65.8968C176.159 65.5448 175.851 64.9948 175.983 64.2468C176.335 62.4868 177.149 59.5608 178.425 55.4688C180.933 47.3728 182.429 42.1588 182.913 39.8268C183.221 39.0348 183.485 38.2208 183.705 37.3848C183.969 36.5488 184.233 35.8228 184.497 35.2068C185.025 33.7548 185.795 33.2488 186.807 33.6888ZM209.709 49.9908V50.1228C209.797 49.9468 209.797 49.9028 209.709 49.9908Z" fill="white"/>
<path d="M146.188 33.4248C147.42 32.2368 148.784 31.5548 150.28 31.3788C151.82 31.1588 153.162 31.3128 154.306 31.8408C155.494 32.3688 156.352 33.2268 156.88 34.4148C157.452 35.5588 157.386 36.8788 156.682 38.3748C155.186 40.5748 153.998 42.9508 153.118 45.5028C152.238 48.0548 151.424 50.6288 150.676 53.2248C154.724 50.6728 158.112 46.8668 160.84 41.8068C161.632 40.3108 162.49 38.7928 163.414 37.2528L164.404 35.4048L166.384 32.2368C166.648 31.4008 167.11 30.8728 167.77 30.6528C168.43 30.3888 169.134 30.2568 169.882 30.2568C170.674 30.2568 171.466 30.2788 172.258 30.3228C173.05 30.3228 173.776 30.1028 174.436 29.6628C175.096 29.2228 175.866 29.0688 176.746 29.2008C177.67 29.2888 178.484 29.5748 179.188 30.0588C179.936 30.5428 180.486 31.1368 180.838 31.8408C181.234 32.5008 181.278 33.1608 180.97 33.8208C179.122 37.7808 176.592 45.1508 173.38 55.9308C172.632 58.3508 171.928 60.3748 171.268 62.0028C170.168 63.3668 168.782 64.2908 167.11 64.7748C165.438 65.2588 163.854 65.3908 162.358 65.1708C160.906 64.9948 159.74 64.4888 158.86 63.6528C157.98 62.8608 157.782 61.8488 158.266 60.6168C157.034 61.6288 155.758 62.5528 154.438 63.3888C153.118 64.2248 151.512 64.7748 149.62 65.0388C147.772 65.3028 145.99 65.2148 144.274 64.7748C142.558 64.3788 141.084 63.5868 139.852 62.3988C138.664 61.2108 138.026 59.6268 137.938 57.6468C137.674 50.6948 140.424 42.6208 146.188 33.4248Z" fill="white"/>
<path d="M110.744 62.5968C110.348 64.3568 108.984 65.4348 106.652 65.8308C104.496 66.2268 102.45 65.9848 100.514 65.1048C98.3579 64.1808 97.412 62.8828 97.676 61.2108C97.412 58.6588 98.754 53.1148 101.702 44.5788C106.102 31.7748 110.502 22.6228 114.902 17.1228C116.046 15.7148 117.014 14.8128 117.806 14.4168C118.642 13.9768 119.588 13.5808 120.644 13.2288C121.7 12.8768 122.8 12.5468 123.944 12.2388C126.232 11.6228 128.388 11.2048 130.412 10.9848C132.48 10.7208 134.328 10.9628 135.956 11.7108C137.584 12.4148 138.838 13.4708 139.718 14.8788C140.642 16.2868 141.214 17.9588 141.434 19.8948C141.654 21.7868 141.588 23.7888 141.236 25.9008C140.884 27.9688 140.246 30.0808 139.322 32.2368C138.398 34.3488 137.232 36.3288 135.824 38.1768C132.744 42.2248 129.136 44.8428 125 46.0308L125.66 47.1528C126.232 48.0328 126.914 49.0008 127.706 50.0568C128.542 51.1128 129.356 52.1908 130.148 53.2908C130.984 54.3908 131.732 55.4908 132.392 56.5908C133.052 57.6908 133.536 58.7248 133.844 59.6928C134.548 61.8488 133.998 63.4108 132.194 64.3788C130.742 65.2588 129.598 65.4788 128.762 65.0388C128.41 64.8188 128.058 64.5328 127.706 64.1808C127.354 63.8728 126.87 63.6088 126.254 63.3888C123.658 64.1368 121.678 63.4768 120.314 61.4088C119.478 60.0888 118.84 58.8788 118.4 57.7788C117.96 56.6788 117.586 55.7548 117.278 55.0068C116.486 53.3788 115.584 51.9708 114.572 50.7828C114.088 51.9708 113.538 53.4888 112.922 55.3368C112.174 57.6688 111.338 60.0888 110.414 62.5968H110.744ZM124.076 24.1848C123.24 26.0768 122.668 27.3968 122.36 28.1448C121.744 29.6408 121.062 31.2908 120.314 33.0948C120.182 34.0628 120.072 34.7448 119.984 35.1408L120.908 34.2168L122.03 33.6888C122.822 33.2488 123.548 32.8528 124.208 32.5008C124.868 32.1488 125.462 31.7088 125.99 31.1808C127.002 30.1688 127.882 28.5188 128.63 26.2308C128.63 25.7908 128.696 25.3508 128.828 24.9108C129.004 24.4708 129.114 24.0308 129.158 23.5908C129.334 22.6228 128.938 21.9408 127.97 21.5448C127.09 21.4568 125.99 22.1828 124.67 23.7228C124.406 24.0308 124.208 24.1848 124.076 24.1848Z" fill="white"/>
<path d="M88.3339 13.0308L88.3999 12.7668L88.9939 12.1728C89.4779 11.0288 90.0059 10.3468 90.5779 10.1268C90.8859 10.0388 91.2819 9.92876 91.7659 9.79676C92.2499 9.66476 92.8879 9.33476 93.6799 8.80676C93.9879 8.19076 94.6259 7.92676 95.5939 8.01476C96.5619 8.05876 97.5079 8.36676 98.4319 8.93876C99.3999 9.46676 100.17 10.2148 100.742 11.1828C101.358 12.1508 101.512 13.1628 101.204 14.2188C100.896 15.2308 100.632 16.0008 100.412 16.5288C100.236 17.0128 100.038 17.4748 99.8179 17.9148C99.6419 18.3548 99.3999 18.8608 99.0919 19.4328C98.8279 19.9608 98.4759 20.6868 98.0359 21.6108L95.8579 26.1648C95.6379 26.7368 95.4399 27.0668 95.2639 27.1548C95.1319 27.2428 94.9999 27.3968 94.8679 27.6168C95.2639 27.5288 95.5939 27.4628 95.8579 27.4188C96.1219 27.3748 96.3859 27.3308 96.6499 27.2868C97.2659 27.1988 97.9699 27.1108 98.7619 27.0228C99.2459 27.1108 99.6639 27.1548 100.016 27.1548H100.94C101.468 27.1548 102.106 27.3088 102.854 27.6168C103.602 27.8808 104.086 28.3648 104.306 29.0688C104.526 29.7728 104.548 30.4988 104.372 31.2468C104.196 31.9508 103.844 32.6108 103.316 33.2268C102.788 33.8428 102.106 34.1728 101.27 34.2168C97.4419 35.2728 94.7139 35.8448 93.0859 35.9328L92.6899 36.3948V36.4608C92.2499 37.5168 91.7659 38.8588 91.2379 40.4868C90.7539 42.0708 90.2039 43.8088 89.5879 45.7008C89.0159 47.5488 88.4219 49.4848 87.8059 51.5088C87.1899 53.4888 86.5519 55.4028 85.8919 57.2508C83.7799 63.4548 82.2399 66.8208 81.2719 67.3488C80.9199 67.5248 80.5459 67.6348 80.1499 67.6788C79.7979 67.7668 79.5999 67.8328 79.5559 67.8768C78.0159 67.7888 76.7399 67.4808 75.7279 66.9528C74.7159 66.4248 74.0339 65.9188 73.6819 65.4348C73.3299 64.9508 73.2419 64.4008 73.4179 63.7848C74.2539 56.1288 75.9259 47.7468 78.4339 38.6388C77.5539 38.6388 76.9379 38.7268 76.5859 38.9028C75.9259 39.2548 75.1339 39.4528 74.2099 39.4968H74.1439C73.4399 39.4528 72.8019 39.1228 72.2299 38.5068C71.6579 37.8908 71.3059 37.1868 71.1739 36.3948C71.0419 35.6028 71.1739 34.7888 71.5699 33.9528C71.9659 33.1168 72.7579 32.4568 73.9459 31.9728C75.3539 31.5768 76.3879 31.2468 77.0479 30.9828C78.3239 30.4548 79.3799 30.0808 80.2159 29.8608C81.0959 29.6408 81.5799 29.5088 81.6679 29.4648C81.7999 29.3768 81.8879 29.3108 81.9319 29.2668C82.0639 29.1788 82.3939 29.1348 82.9219 29.1348C83.1859 27.8588 83.4499 26.5608 83.7139 25.2408C83.9779 23.9208 84.3079 22.5788 84.7039 21.2148C85.5839 18.0468 86.7939 15.3188 88.3339 13.0308Z" fill="white"/>
<path d="M57.9548 33.8208C58.5268 32.3688 59.8908 31.3788 62.0468 30.8508C64.0708 30.3228 65.9628 30.3888 67.7228 31.0488C69.5268 31.7528 70.3408 32.8968 70.1648 34.4808C69.6808 36.0208 69.0648 37.9128 68.3168 40.1568C67.6128 42.3568 66.9308 44.6228 66.2708 46.9548C64.5108 52.9388 63.4988 57.1628 63.2348 59.6268C62.5748 63.5868 61.4748 65.7208 59.9348 66.0288C59.4948 66.1168 59.0768 66.1828 58.6808 66.2268C57.7128 66.2708 57.0968 66.5348 56.8328 67.0188C56.5688 67.5028 56.1288 67.8548 55.5128 68.0748C54.8968 68.3388 54.2148 68.4488 53.4668 68.4048C52.7628 68.4048 52.0368 68.2288 51.2888 67.8768C50.5408 67.5688 49.9028 67.1068 49.3748 66.4908C48.1428 64.9948 47.9008 62.9928 48.6488 60.4848C49.3528 55.6888 51.1348 49.5948 53.9948 42.2028C55.3588 38.5508 56.6788 35.7568 57.9548 33.8208ZM70.4288 23.9208C68.2728 24.3608 66.5128 24.2288 65.1488 23.5248C63.8288 22.8208 63.0588 21.9848 62.8388 21.0168C62.6188 20.0048 62.9268 18.9708 63.7628 17.9148C64.7308 16.5948 66.1828 15.7368 68.1188 15.3408C68.9988 15.2528 69.6368 15.2088 70.0328 15.2088C70.4288 15.2088 70.9128 15.2968 71.4848 15.4728C72.9368 15.6048 73.8828 16.2428 74.3228 17.3868C74.9388 18.3548 74.9828 19.4548 74.4548 20.6868C73.9708 21.9188 72.6288 22.9968 70.4288 23.9208Z" fill="white"/>
<path d="M26.216 48.0107L23.048 56.0628C22.608 57.2948 22.212 58.5707 21.86 59.8907C21.508 61.2107 21.134 62.3548 20.738 63.3228C20.342 64.3348 19.726 65.1268 18.89 65.6988C18.098 66.2708 17.196 66.6888 16.184 66.9528C15.172 67.2608 14.116 67.3927 13.016 67.3487C11.96 67.3047 11.014 67.1068 10.178 66.7548C8.28599 65.8748 7.62599 64.4228 8.19799 62.3988C10.222 53.5107 12.114 46.3828 13.874 41.0148C15.678 35.6468 17.152 31.4227 18.296 28.3427C19.484 25.2627 20.716 22.0068 21.992 18.5748C22.124 17.2988 22.652 16.1548 23.576 15.1428C24.5 14.1308 25.578 13.2948 26.81 12.6348C28.086 11.9748 29.406 11.5127 30.77 11.2488C32.134 10.9407 33.344 10.8967 34.4 11.1168C35.456 11.3368 36.226 11.8208 36.71 12.5687C37.238 13.3167 37.282 14.3947 36.842 15.8027C35.258 19.8507 34.136 22.7108 33.476 24.3827C32.816 26.0547 32.222 27.5508 31.694 28.8708L29.846 33.2268C30.77 33.2708 31.936 33.1388 33.344 32.8308C35.896 32.2588 37.744 32.0607 38.888 32.2367C38.888 32.0167 38.998 31.6427 39.218 31.1147C40.45 25.7467 41.836 20.8188 43.376 16.3308C44.476 12.6347 47.314 10.6987 51.89 10.5228C53.694 10.5228 55.058 10.9628 55.982 11.8428C56.994 12.7667 57.126 14.0207 56.378 15.6047C52.33 26.9568 49.47 35.9108 47.798 42.4668C45.906 50.0348 44.652 55.1387 44.036 57.7787C43.464 60.4187 42.958 61.9808 42.518 62.4648C42.078 62.9488 41.616 63.2788 41.132 63.4548C40.692 63.6748 40.252 63.8728 39.812 64.0488C39.372 64.2248 39.02 64.6648 38.756 65.3688H38.558C38.206 66.1608 37.436 66.7768 36.248 67.2168C35.06 67.6568 33.85 67.8107 32.618 67.6787C31.43 67.5907 30.418 67.1507 29.582 66.3587C28.79 65.6107 28.592 64.4447 28.988 62.8607C29.428 60.3527 30.154 57.6688 31.166 54.8088C32.178 51.9048 32.97 49.6387 33.542 48.0107C34.158 46.3827 34.664 44.8647 35.06 43.4567C34.708 43.6327 34.356 43.7648 34.004 43.8528C33.696 43.9408 33.3 44.1168 32.816 44.3808C32.332 44.6008 31.826 44.7988 31.298 44.9748C30.814 45.1508 30.33 45.3268 29.846 45.5028C28.614 45.9868 27.602 46.4708 26.81 46.9548L26.216 48.0107ZM33.674 43.5888C33.718 43.5888 33.938 43.5228 34.334 43.3908C34.07 43.4788 33.85 43.5448 33.674 43.5888Z" fill="white"/>
<path d="M306.342 22.0618H306.341C309.172 22.1362 312.096 22.8108 314.742 24.4769C317.259 26.062 319.079 28.2638 320.298 30.7376L320.535 31.2367L320.571 31.3158L320.605 31.3958C322.111 34.9101 322.046 38.7891 321.567 42.1458L321.539 42.347L321.5 42.5472C320.743 46.4246 319.543 50.5057 317.23 53.5306L317.195 53.5765L317.16 53.6214C317.104 53.6922 317.045 53.7606 316.988 53.8304C317.047 53.9247 317.091 53.9925 317.115 54.0316C317.478 54.6276 317.783 55.247 318.032 55.7904C318.804 57.3911 319.277 59.3727 318.989 61.5618C318.696 63.7839 317.708 65.5617 316.626 66.8607L316.624 66.8597C314.925 68.9487 312.741 70.2653 310.756 71.1253C308.81 71.9689 306.708 72.5782 304.524 73.015C302.449 73.4299 300.365 73.7175 298.274 73.8743L298.273 73.8734C293.984 74.2051 289.52 74.0222 285.712 72.4242C280.717 70.6251 277.09 66.9862 275.385 61.9603C275.519 61.6717 275.644 61.3657 275.763 61.0433L282.826 58.9671C283.706 61.9589 285.642 63.961 288.633 64.973C290.701 65.897 293.715 66.2048 297.675 65.8968C299.215 65.7813 300.755 65.5811 302.296 65.2972L302.956 65.1712C304.495 64.8633 305.867 64.4708 307.07 63.9945L307.576 63.7845C308.896 63.2126 309.863 62.5305 310.479 61.7386C311.139 60.9466 311.249 60.1108 310.809 59.2308C310.413 58.3509 310.105 57.8453 309.885 57.7132C309.665 57.5812 309.468 57.515 309.292 57.515C309.116 57.515 308.918 57.4486 308.698 57.3167C308.478 57.1847 308.191 56.7229 307.839 55.931C306.959 55.139 306.014 54.7649 305.002 54.8089C304.034 54.8529 303.021 55.0507 301.965 55.4027C300.954 55.7106 299.964 56.0624 298.996 56.4583C298.072 56.8103 297.213 56.9204 296.421 56.7884C295.234 56.1725 294.574 55.6444 294.442 55.2044C295.674 55.1164 297.676 54.7871 300.448 54.2152C301.504 53.9952 302.427 53.775 303.219 53.555C304.011 53.335 304.826 53.0272 305.662 52.6312C307.994 51.4433 309.732 50.1231 310.876 48.6712C311.948 47.2687 312.827 44.9377 313.513 41.679L313.647 41.015C314.018 38.4163 313.926 36.359 313.369 34.8431L313.252 34.5472C311.973 31.7339 309.703 30.2421 306.442 30.0716L306.124 30.0589C302.912 29.9709 299.831 30.5651 296.883 31.8411L296.408 32.055C294.044 33.1662 291.892 34.8769 289.954 37.1868L289.515 37.7122C287.362 40.3316 285.771 42.7968 284.74 45.1068L284.518 45.5999C282.282 50.675 281.718 55.1309 282.826 58.9671L275.763 61.0433C275.905 60.6607 276.04 60.2549 276.163 59.8245C276.471 58.9006 276.757 57.8445 277.021 56.6566C277.285 55.4686 277.637 54.0823 278.077 52.4984C280.148 44.9427 282.363 37.7858 284.718 31.0267C287.271 28.2349 290.255 25.9886 293.706 24.4993L294.462 24.1839C298.255 22.661 302.238 21.9494 306.342 22.0618ZM296.355 46.1624C297.675 43.0385 299.502 41.7185 301.834 42.2025C301.966 42.6425 301.878 43.2591 301.57 44.0511C301.262 44.7991 300.799 45.5473 300.183 46.2952C298.511 48.1429 296.927 48.979 295.431 48.8031C295.651 47.8791 295.959 46.9984 296.355 46.1624Z" fill="black"/>
<path d="M276.83 4.43391C280.827 0.818783 285.845 0.301146 290.375 1.81087L296.3 3.78645L295.983 7.9095C297.425 9.76882 298.99 12.6255 298.647 16.2308L298.531 17.4534L298.053 18.5853C295.834 23.8414 293.714 29.4211 291.697 35.3275C291.098 35.8971 290.517 36.5162 289.954 37.1868C287.578 40.0028 285.84 42.6428 284.74 45.1068C282.32 50.3868 281.682 55.0071 282.826 58.9671C283.109 59.9312 283.503 60.7926 284.005 61.5511C283.947 61.7415 283.888 61.93 283.828 62.1165C283.461 63.3843 282.995 64.6433 282.394 65.8441C281.499 67.6346 280.265 69.0934 278.923 70.2669C277.739 71.3037 276.437 72.1801 275.081 72.9281C273.636 73.768 272.043 74.4795 270.315 74.9115L270.196 74.9417L270.075 74.9681C268.397 75.3327 265.235 75.747 262.143 74.0081C260.683 73.1865 259.63 72.1242 258.881 70.9866C256.558 69.5825 255.133 67.3587 254.566 65.0443C254.252 63.7629 254.211 62.5318 254.294 61.4476C254.536 61.2056 254.781 60.9515 255.025 60.6829C256.389 59.1869 257.621 57.4267 258.721 55.4027C259.865 53.3787 260.767 51.3105 261.427 49.1986C262.087 47.0427 262.461 44.9744 262.549 42.9945C262.681 40.9708 262.461 39.3211 261.889 38.0452C261.648 37.4613 261.336 36.947 260.956 36.5013C264.124 26.7397 268.015 17.7978 272.656 9.70931L272.935 9.222L273.28 8.77962C273.391 8.6366 273.602 8.34393 273.921 7.847H273.922C274.73 6.55085 275.713 5.41305 276.83 4.43391ZM287.845 9.40071C285.601 8.65273 283.71 8.98303 282.17 10.3909C281.554 10.9189 281.047 11.5132 280.651 12.1732C280.255 12.789 279.903 13.2948 279.595 13.6908L278.738 15.2122C274.494 22.877 270.908 31.4117 267.979 40.8167C266.659 44.9527 265.581 48.7587 264.745 52.2347C263.909 55.6667 263.139 58.593 262.435 61.013L262.369 61.3343C262.075 62.9046 262.361 63.8751 263.227 64.2464C263.579 64.4224 263.953 64.5325 264.349 64.5765C264.789 64.6645 265.076 64.9286 265.208 65.3685C265.29 66.8949 266.223 67.5125 268.007 67.221L268.376 67.1507C269.255 66.9307 270.179 66.535 271.147 65.9632C272.115 65.4352 272.951 64.8624 273.655 64.2464C274.271 63.7074 274.753 63.1351 275.099 62.5286L275.239 62.2669C275.591 61.5629 275.899 60.7485 276.163 59.8245C276.471 58.9006 276.757 57.8445 277.021 56.6566C277.285 55.4686 277.637 54.0823 278.077 52.4984C281.583 39.711 285.496 28.0647 289.814 17.5589L290.683 15.473C290.771 14.549 290.309 13.5144 289.297 12.3704C288.901 11.8865 288.549 11.4247 288.241 10.9847C287.933 10.5007 287.801 9.97264 287.845 9.40071Z" fill="black"/>
<path d="M248.943 1.1429C251.381 0.789932 253.741 1.2307 255.822 2.27473C258.647 3.63734 260.357 5.93338 261.318 8.13606C262.229 10.1414 262.74 12.4249 262.541 14.8675C262.436 16.5522 262.061 18.1664 261.474 19.6898L261.476 19.6908C261.023 20.9195 260.463 22.1026 259.817 23.2415C259.47 23.9031 259.141 24.5626 258.828 25.2191C258.664 25.6134 258.504 26.0017 258.346 26.3831C260.042 26.7442 261.694 27.3525 263.255 28.2454C265.973 29.7277 267.987 32.0001 269.187 34.7728H269.189C269.201 34.7989 269.211 34.8257 269.222 34.8519C269.241 34.8966 269.262 34.9407 269.281 34.9857H269.279C269.401 35.2706 269.516 35.556 269.619 35.8441C269.052 37.4738 268.504 39.131 267.979 40.8167C266.893 44.2201 265.972 47.4003 265.213 50.3568L261.427 49.1986C262.087 47.0427 262.461 44.9744 262.549 42.9945C262.681 40.9708 262.461 39.3211 261.889 38.0452C261.361 36.7692 260.503 35.8224 259.315 35.2064C258.171 34.5465 256.873 34.1509 255.421 34.0189C252.121 33.7989 249.019 34.6571 246.115 36.5931L245.521 36.9886C246.709 33.7326 248.711 28.7166 251.527 21.9408C251.923 21.1048 252.341 20.2689 252.781 19.4329C253.265 18.597 253.661 17.761 253.969 16.9251C254.321 16.0451 254.519 15.1645 254.563 14.2845C254.651 13.3606 254.475 12.4145 254.035 11.4466C253.639 10.4787 253.067 9.81909 252.319 9.46712C251.571 9.07116 250.801 8.93871 250.009 9.07063C249.217 9.15863 248.491 9.5103 247.831 10.1263C247.171 10.6983 246.709 11.5127 246.445 12.5687C245.477 12.1288 244.421 12.459 243.277 13.5589C241.121 15.715 238.877 19.9613 236.546 26.2972C233.07 35.669 230.363 45.8327 228.427 56.7884C227.547 59.5604 227.878 61.8048 229.418 63.5208C230.914 65.1486 233.223 65.8307 236.347 65.5667L236.677 65.3031L236.611 65.2366C237.447 65.1046 238.305 64.7306 239.185 64.1146L240.836 62.597V62.0687C241.143 62.2447 241.473 62.4873 241.825 62.7952C243.453 64.1151 244.883 64.6869 246.115 64.5111C248.975 65.3471 251.945 64.0708 255.025 60.6829C256.389 59.1869 257.621 57.4267 258.721 55.4027C259.865 53.3787 260.767 51.3105 261.427 49.1986L265.213 50.3568C265.05 50.9932 264.893 51.6189 264.745 52.2347C263.909 55.6667 263.139 58.593 262.435 61.013C262.122 62.4051 262.223 63.3688 262.736 63.9075C262.165 64.6585 261.567 65.3819 260.937 66.0726C257.293 70.078 251.884 73.7555 245.334 72.5374C244.053 72.5014 242.857 72.2502 241.761 71.8704C241.404 72.0491 241.034 72.2155 240.651 72.3675L240.039 72.8568L234.617 79.0033V73.6126C230.75 73.5197 226.658 72.3411 223.527 68.9339L223.495 68.8988L223.463 68.8636C221.878 67.097 220.899 65.1604 220.39 63.1732C220.416 63.1794 220.442 63.1843 220.467 63.1908C220.863 63.2787 221.281 63.2787 221.721 63.1908C222.469 63.1028 223.305 61.5848 224.229 58.637C225.945 52.829 227.046 47.0426 227.53 41.2786C227.882 36.8351 227.662 33.9971 226.87 32.765C226.802 32.5966 226.579 32.2996 226.203 31.8734C227.087 29.0294 228.033 26.2427 229.045 23.515C231.404 17.1074 234.13 11.392 237.621 7.90169L237.675 7.84602L237.732 7.79231C238.597 6.96063 239.845 5.99868 241.377 5.30403C241.681 4.94996 242.012 4.60725 242.373 4.27864L242.706 3.97786C244.363 2.53598 246.466 1.45791 248.943 1.1429ZM245.653 47.8792C246.929 45.2396 247.985 44.4469 248.821 45.5023C249.657 46.5143 249.789 47.6151 249.217 48.8031C248.689 49.947 247.611 51.5526 245.983 53.6204C244.399 55.6884 243.277 57.097 242.617 57.845C242.617 55.4251 243.629 52.103 245.653 47.8792Z" fill="black"/>
<path d="M217.454 20.349C221.965 20.1755 227.227 21.1154 230.976 25.2327C231.272 25.5366 231.554 25.8479 231.824 26.1644C232.148 26.517 232.483 26.8923 232.787 27.2718C232.919 27.4377 233.401 28.0263 233.857 28.8636C234.284 29.6042 234.605 30.3696 234.849 31.1204C232.178 39.1299 230.036 47.6855 228.427 56.7884C227.547 59.5604 227.878 61.8048 229.418 63.5208C229.762 63.8958 230.152 64.2179 230.583 64.4925C230.374 64.9602 230.154 65.4143 229.917 65.845C229.521 66.5628 228.906 67.5495 227.995 68.4739C227.199 69.2809 225.633 70.5828 223.29 71.0345C223.285 71.0355 223.28 71.0365 223.275 71.0374C223.188 71.0539 223.101 71.0692 223.012 71.0833C222.952 71.0939 222.892 71.1059 222.831 71.1156C220.422 72.8473 217.603 73.5002 214.99 73.5003C211.405 73.5003 207.973 72.3182 205.173 69.8187V69.8177C204.06 68.851 202.991 67.6202 202.198 66.0872C201.432 66.1128 200.653 66.0746 199.866 65.9622L199.799 65.9525C199.054 65.8396 198.296 65.6618 197.545 65.4154C197.408 65.6979 197.267 65.979 197.121 66.2572L197.048 66.3939L196.971 66.5286C195.139 69.704 192.424 72.1756 188.913 73.5755C185.56 74.9123 182.003 75.0679 178.621 74.6263C178.612 74.6252 178.602 74.6245 178.593 74.6234C178.583 74.622 178.572 74.6209 178.561 74.6195V74.6185C176.853 74.3995 175.053 73.935 173.33 73.0521C171.945 72.3695 170.277 71.1679 169.135 69.1292C168.252 67.5512 167.942 65.9349 167.956 64.4808C169.255 63.9545 170.359 63.1291 171.268 62.0023C171.928 60.3744 172.633 58.3507 173.38 55.931C176.592 45.151 179.122 37.7806 180.97 33.8206C181.278 33.1609 181.234 32.5009 180.838 31.8411C180.486 31.1372 179.936 30.5429 179.188 30.0589C178.95 29.895 178.698 29.7555 178.434 29.637C179.069 28.7322 179.924 27.8114 181.078 27.0531C181.361 26.8668 181.647 26.6998 181.934 26.5511C182.77 25.7374 183.684 25.0975 184.56 24.6195C186.793 23.4013 189.206 22.8509 191.626 22.8509L192.098 22.8577C194.248 22.9239 196.303 23.4416 198.205 24.3421C201.518 22.7473 205.242 21.9878 209.228 22.887H209.229C209.412 22.9252 209.593 22.9674 209.771 23.013C211.665 21.9235 213.702 21.0937 215.88 20.5667L216.656 20.3792L217.454 20.349ZM217.761 28.3431L217.253 28.4749C214.723 29.1813 212.407 30.5455 210.303 32.5667C209.602 31.618 208.765 31.0176 207.794 30.765L207.597 30.7191C204.517 29.9711 201.108 31.2249 197.368 34.4808C196.972 33.1608 196.201 32.2363 195.057 31.7083C193.957 31.1365 192.813 30.8509 191.626 30.8509C190.438 30.8509 189.359 31.1149 188.391 31.6429C187.423 32.1709 186.895 32.8529 186.807 33.6888C185.795 33.2489 185.026 33.7548 184.498 35.2064C184.234 35.8224 183.97 36.5491 183.706 37.3851L183.532 38.0072C183.35 38.6259 183.145 39.2325 182.914 39.8265L182.811 40.2982C182.239 42.8223 180.777 47.8794 178.425 55.4691L177.968 56.9486C176.953 60.2738 176.291 62.7064 175.983 64.2464C175.851 64.9944 176.16 65.5448 176.908 65.8968C177.656 66.2927 178.558 66.5568 179.614 66.6888C184.43 67.328 187.842 66.0474 189.851 62.847L190.042 62.5306C190.482 61.6947 190.856 60.8363 191.164 59.9564C191.472 59.0765 191.89 58.0865 192.418 56.9866C192.945 55.8428 193.407 54.8528 193.803 54.0169C194.001 53.5771 194.194 53.1589 194.38 52.763L194.925 51.6409C195.245 51.0019 196.146 49.6207 197.626 47.4954C197.197 50.3302 197.044 52.3939 197.17 53.6868C197.258 54.3028 197.368 54.787 197.5 55.139C197.632 55.4908 197.763 55.8428 197.895 56.1947C198.511 57.2067 199.546 57.8223 200.998 58.0423C201.614 58.1303 202.252 58.1089 202.912 57.9769C203.616 57.8448 204.364 57.537 205.156 57.0531C205.887 56.591 206.484 56.0107 206.946 55.3128L207.135 55.0072C207.619 54.1272 208.235 52.9386 208.983 51.4427C209.379 50.8707 210.37 49.1328 211.954 46.2288C213.538 43.281 214.791 41.279 215.715 40.223C214.439 43.5669 213.273 46.7788 212.217 49.8587C211.601 51.6187 211.03 53.3352 210.502 55.0072C209.974 56.635 209.489 58.2407 209.049 59.8245C208.653 61.3645 209.138 62.7069 210.502 63.8509C211.657 64.8821 213.044 65.43 214.663 65.4945L214.99 65.5003C216.794 65.5002 218.135 64.9284 219.015 63.7845C219.059 63.2568 219.213 62.9927 219.477 62.9925C219.785 63.0365 220.115 63.1027 220.467 63.1907C220.863 63.2787 221.281 63.2787 221.721 63.1907C222.422 63.1083 223.201 61.7691 224.057 59.1732L224.229 58.637C225.838 53.192 226.905 47.766 227.431 42.3597L227.53 41.2786C227.882 36.8351 227.662 33.9971 226.87 32.765C226.782 32.545 226.429 32.1047 225.813 31.4447C225.593 31.1807 225.373 30.939 225.153 30.7191C223.657 29.0031 221.193 28.2111 217.761 28.3431ZM209.71 49.9906C209.797 49.9029 209.797 49.9468 209.71 50.1224V49.9906ZM197.685 47.1009C197.648 47.1379 197.607 47.1771 197.565 47.2191L197.698 47.0208C197.694 47.0476 197.689 47.0743 197.685 47.1009Z" fill="black"/>
<path d="M137.938 57.6468C138.026 59.6268 138.664 61.2108 139.852 62.3988C141.084 63.5867 142.558 64.3787 144.274 64.7747C145.99 65.2147 147.772 65.3024 149.62 65.0384C151.512 64.7744 153.118 64.225 154.438 63.389C155.758 62.553 157.034 61.6285 158.266 60.6165C157.782 61.8485 157.98 62.8607 158.86 63.6527C159.74 64.4887 160.906 64.9952 162.358 65.1712C163.854 65.3912 165.438 65.2587 167.11 64.7747C168.782 64.2907 170.168 63.3663 171.268 62.0023L176.048 63.9398C176.026 64.0458 176.003 64.1477 175.983 64.2464C175.851 64.9944 176.16 65.5448 176.908 65.8968C177.251 66.0782 177.626 66.2298 178.034 66.3558L177.496 67.0247C175.373 69.6565 172.593 71.5159 169.335 72.4593C166.791 73.1957 164.114 73.4795 161.395 73.1117V73.1126C161.35 73.1072 161.306 73.0999 161.261 73.0941C161.239 73.0909 161.216 73.0886 161.194 73.0853V73.0843C159.495 72.8572 157.773 72.3584 156.158 71.4867C154.408 72.2333 152.574 72.7043 150.725 72.9622L150.724 72.9613C147.901 73.3612 145.066 73.2364 142.287 72.5238V72.5228C140.712 72.1419 139.218 71.5603 137.828 70.7806L137.172 71.1947L137.368 70.514C136.273 69.8545 135.245 69.0701 134.298 68.1576L134.195 68.056C133.153 67.0142 132.327 65.8703 131.69 64.6634C131.854 64.5776 132.022 64.4835 132.194 64.3792C133.998 63.4112 134.548 61.8487 133.844 59.6927C133.658 59.1064 133.405 58.4964 133.089 57.8617L137.938 57.6468ZM171.273 22.2757C173.357 21.2549 175.58 20.9893 177.663 21.2542C179.697 21.4712 181.708 22.1341 183.533 23.3421H183.534C183.596 23.3826 183.658 23.4245 183.72 23.4661H183.719C185.346 24.5566 186.806 26.0394 187.836 27.9613C188.43 29.012 188.839 30.1535 189.037 31.3382C188.817 31.4278 188.601 31.5285 188.391 31.6429C187.423 32.1709 186.895 32.8529 186.807 33.6888C185.795 33.2489 185.026 33.7548 184.498 35.2064C184.234 35.8224 183.97 36.5491 183.706 37.3851C183.486 38.2209 183.222 39.0347 182.914 39.8265C182.43 42.1585 180.933 47.3731 178.425 55.4691C177.221 59.3313 176.43 62.1551 176.048 63.9398L171.268 62.0023C171.763 60.7813 172.283 59.3377 172.828 57.6712L173.38 55.931C176.392 45.8244 178.803 38.7149 180.616 34.6029L180.97 33.8206C181.278 33.1609 181.234 32.5009 180.838 31.8411C180.531 31.2252 180.071 30.693 179.46 30.2454L179.188 30.0589C178.484 29.5749 177.67 29.2885 176.746 29.2005C175.866 29.0686 175.096 29.2226 174.436 29.6624C173.776 30.1024 173.05 30.3225 172.258 30.3226L171.664 30.2943C171.07 30.2695 170.476 30.2572 169.882 30.2572C169.134 30.2572 168.43 30.3887 167.77 30.6527L167.649 30.6976C167.053 30.9398 166.632 31.4528 166.384 32.2367L164.404 35.4046L163.414 37.2523C162.49 38.7923 161.632 40.311 160.84 41.807C158.112 46.8669 154.724 50.6729 150.676 53.2249C151.424 50.6289 152.238 48.0543 153.118 45.5023C153.998 42.9504 155.186 40.5742 156.682 38.3743C157.386 36.8785 157.452 35.5583 156.88 34.4144C156.385 33.3007 155.6 32.4773 154.525 31.9437L154.306 31.8411C153.162 31.3131 151.82 31.1592 150.28 31.3792L150.001 31.4173C148.614 31.6417 147.343 32.3115 146.188 33.4251L145.657 34.2835C140.255 43.1243 137.682 50.912 137.938 57.6468L133.089 57.8617C132.884 57.4486 132.652 57.0247 132.392 56.5911C131.732 55.4911 130.984 54.3904 130.148 53.2904C130.133 53.2698 130.118 53.2494 130.103 53.2288C130.508 49.2663 131.581 45.2289 133.213 41.1409C134.122 40.2568 134.993 39.2696 135.824 38.1771C137.232 36.3291 138.398 34.3487 139.322 32.2367C140.026 30.5944 140.562 28.9773 140.934 27.3861C143.153 25.3458 145.916 23.886 149.149 23.4613V23.4593C151.823 23.0773 154.745 23.2631 157.554 24.5316L157.555 24.5306C157.571 24.5378 157.587 24.5458 157.603 24.5531C157.621 24.5614 157.641 24.569 157.659 24.5775L157.658 24.5784C158.716 25.059 159.685 25.6613 160.555 26.3734C161.591 25.0416 163.03 23.866 164.964 23.1605C166.567 22.5438 168.228 22.2572 169.882 22.2572L170.587 22.262C170.816 22.2652 171.045 22.2695 171.273 22.2757Z" fill="black"/>
<path d="M129.427 3.04525C132.667 2.63602 135.99 2.96704 139.13 4.36947L139.131 4.36751C139.18 4.38839 139.227 4.41166 139.275 4.43294C139.282 4.43604 139.289 4.43863 139.295 4.44173H139.295C142.182 5.72473 144.643 7.73915 146.404 10.4896H146.406C146.427 10.5211 146.446 10.5537 146.466 10.5853C146.478 10.6034 146.49 10.6208 146.502 10.639H146.501C148.147 13.2031 149.045 16.0497 149.379 18.971H149.38C149.697 21.694 149.588 24.4545 149.128 27.2161L149.125 27.2298L149.123 27.2435C148.842 28.8923 148.43 30.5266 147.9 32.1449C147.303 32.4723 146.733 32.8997 146.188 33.4251C143.509 37.6991 141.481 41.7306 140.104 45.5199C139.041 46.6811 137.913 47.7511 136.718 48.7191C137.341 49.5508 137.931 50.3924 138.484 51.2454C138.044 53.4757 137.861 55.6093 137.938 57.6468C138.026 59.6268 138.664 61.2108 139.852 62.3988C140.463 62.9882 141.134 63.4799 141.865 63.8743C141.771 64.2916 141.655 64.7138 141.505 65.138C140.456 68.1194 138.344 70.0986 136.192 71.306C134.168 72.5056 129.72 74.5839 125.036 72.1185L124.773 71.9798L124.522 71.8226C124.45 71.7774 124.379 71.7302 124.308 71.6839C123.01 71.684 121.658 71.4994 120.293 71.0443C118.811 70.5505 117.528 69.8126 116.43 68.9222C115.85 69.6833 115.168 70.3823 114.384 71.0013C112.373 72.5906 110.104 73.3453 108.096 73.6986C108.08 73.7015 108.064 73.7045 108.048 73.7074C108.029 73.7107 108.01 73.7149 107.991 73.7181L107.99 73.7161C104.371 74.3603 100.756 73.9611 97.3629 72.4564V72.4583C95.5336 71.6744 93.3455 70.377 91.7223 68.1497C90.1598 66.0058 89.5065 63.5248 89.6539 61.0677C89.5708 58.555 90.0999 55.7708 90.7086 53.2562C91.4632 50.139 92.6252 46.354 94.1402 41.9671C94.9223 39.6915 95.7136 37.5018 96.5142 35.4017C97.8455 35.1178 99.4312 34.7244 101.27 34.2171C102.106 34.1731 102.788 33.8428 103.316 33.2269C103.844 32.6109 104.196 31.9504 104.372 31.2464C104.548 30.4985 104.526 29.7726 104.306 29.0687C104.086 28.3647 103.602 27.8805 102.854 27.6165C102.106 27.3086 101.468 27.1547 100.94 27.1546H100.016C99.9865 27.1546 99.956 27.1523 99.9254 27.1517C102.689 21.028 105.583 15.9658 108.655 12.1253L108.673 12.1019L108.693 12.0784C109.931 10.5544 111.745 8.55093 114.08 7.33822V7.33724C115.36 6.66315 116.717 6.10478 118.114 5.639C119.328 5.23444 120.578 4.86013 121.864 4.514C124.445 3.81896 126.971 3.3194 129.427 3.04525ZM135.956 11.7103C134.328 10.9624 132.48 10.7207 130.412 10.9847C128.388 11.2047 126.232 11.6226 123.944 12.2386C122.8 12.5466 121.7 12.8769 120.644 13.2288L119.873 13.5013C119.122 13.7817 118.433 14.0864 117.806 14.4163L117.656 14.4974C116.893 14.9279 115.974 15.8024 114.902 17.1224L114.49 17.6488C110.227 23.1979 105.964 32.1744 101.702 44.5784C98.7539 53.114 97.4126 58.6581 97.6764 61.2103C97.4124 62.8823 98.3582 64.1808 100.514 65.1048C102.45 65.9847 104.496 66.2264 106.652 65.8304C108.984 65.4344 110.348 64.3568 110.744 62.597H110.414C111.338 60.0892 112.174 57.6691 112.921 55.3372C113.537 53.4892 114.088 51.9706 114.572 50.7826C115.584 51.9706 116.486 53.3792 117.278 55.0072C117.586 55.7551 117.96 56.6788 118.4 57.7786C118.84 58.8786 119.478 60.0886 120.314 61.4085L120.444 61.599C121.803 63.5166 123.739 64.1134 126.254 63.389C126.869 63.609 127.354 63.873 127.706 64.181C128.058 64.533 128.41 64.8184 128.762 65.0384L128.922 65.1136C129.742 65.4486 130.833 65.2041 132.194 64.3792C133.998 63.4112 134.548 61.8487 133.844 59.6927C133.575 58.8458 133.17 57.9483 132.631 57.0003L132.392 56.5911C131.732 55.4911 130.984 54.3904 130.148 53.2904C129.356 52.1904 128.542 51.1129 127.706 50.057C126.914 49.001 126.232 48.0327 125.66 47.1527L125 46.0306C129.136 44.8426 132.744 42.2249 135.824 38.1771C137.232 36.3291 138.398 34.3487 139.322 32.2367C140.246 30.0807 140.884 27.9687 141.236 25.9007C141.588 23.7888 141.654 21.7868 141.434 19.8949C141.214 17.9591 140.642 16.2871 139.718 14.8792C138.838 13.4712 137.584 12.4143 135.956 11.7103ZM127.97 21.5452C128.938 21.9413 129.334 22.6233 129.158 23.5911L129.113 23.9212C129.055 24.251 128.96 24.5807 128.828 24.9105C128.696 25.3505 128.629 25.7908 128.629 26.2308C127.881 28.5187 127.002 30.169 125.99 31.181C125.462 31.7089 124.868 32.1484 124.208 32.5003C123.548 32.8523 122.822 33.2488 122.03 33.6888L120.908 34.2171L119.984 35.1409C120.072 34.745 120.182 34.0629 120.314 33.0951C121.062 31.2911 121.744 29.6408 122.36 28.1449C122.668 27.3969 123.24 26.0768 124.076 24.1849C124.175 24.1849 124.311 24.0982 124.484 23.9251L124.67 23.723C125.99 22.183 127.09 21.4572 127.97 21.5452Z" fill="black"/>
<path d="M91.3307 0.754229C93.1137 0.0164747 94.8131 -0.0592523 96.0719 0.0296198C98.447 0.158031 100.605 0.910112 102.478 2.03743C104.599 3.24247 106.315 4.93699 107.559 6.99935C109.296 9.79254 109.854 13.1295 108.883 16.4583L108.871 16.5033L108.857 16.5482C108.558 17.531 108.237 18.4943 107.904 19.3314C107.712 19.8526 107.501 20.3668 107.268 20.8734C108.53 21.5938 109.648 22.5785 110.521 23.807C107.864 28.5922 105.206 34.7089 102.549 42.1576C101.248 42.5078 99.9924 42.8226 98.8053 43.0882C98.3311 44.6338 97.8019 46.3074 97.2164 48.1068C96.6523 49.9294 96.0677 51.8401 95.4596 53.8382L95.4518 53.8617L95.4449 53.8851C94.8104 55.9245 94.1491 57.9053 93.4644 59.8275L93.4654 59.8284C92.3778 63.0235 91.3631 65.7108 90.4273 67.7562C89.9654 68.7659 89.4354 69.8133 88.8307 70.7523C88.4247 71.3825 87.2365 73.2087 85.1031 74.3724L84.9771 74.4408L84.8492 74.5042C84.4979 74.6799 84.1389 74.834 83.775 74.971L82.6783 76.0687L79.0992 75.8636C76.8029 75.7324 74.3322 75.248 72.0269 74.0452C70.7402 73.3739 68.6873 72.1691 67.2115 70.14C65.5012 67.788 65.0268 65.0361 65.5143 62.4857C66.1142 57.1602 67.0845 51.5619 68.4127 45.6966C67.8893 45.3458 67.4065 44.9602 66.9674 44.5501C67.4082 43.0577 67.8574 41.5928 68.317 40.1566C69.0649 37.9127 69.6807 36.0207 70.1646 34.4808C70.3406 32.897 69.5269 31.7532 67.7232 31.0492C66.6486 30.6462 65.5242 30.4643 64.3512 30.5042C65.8887 27.2779 68.6127 25.5068 70.9273 24.5638L71.3453 24.3939L71.7799 24.2718C73.1368 23.8902 73.8311 23.6533 74.0768 23.555C74.7417 23.2811 75.4036 23.0224 76.0543 22.7904C76.3227 21.5564 76.6367 20.3173 76.9957 19.0736C77.9202 15.7453 79.1944 12.6388 80.8853 9.83724L81.1764 8.67708L82.4156 7.43587C83.3267 5.82227 84.9431 3.72316 87.7057 2.66048L88.0377 2.53255L88.3805 2.43489C88.5044 2.39947 88.6385 2.36267 88.7818 2.32259C89.5346 1.67292 90.3924 1.14249 91.3307 0.754229ZM95.5943 8.01497C94.6263 7.92697 93.9883 8.19097 93.6803 8.80696C92.8884 9.33488 92.2502 9.66516 91.7662 9.7972L90.5777 10.1263C90.0057 10.3463 89.4777 11.0292 88.9937 12.1732L88.4 12.7669L88.3336 13.0306C86.7936 15.3186 85.5837 18.0472 84.7037 21.2152C84.3078 22.579 83.9774 23.9207 83.7135 25.2406C83.4495 26.5606 83.1855 27.8591 82.9215 29.1351C82.3939 29.1351 82.0643 29.179 81.9322 29.2669L81.8326 29.349C81.7886 29.382 81.7336 29.4212 81.6676 29.4652C81.5786 29.5094 81.0942 29.641 80.2154 29.8607C79.3795 30.0807 78.3233 30.4548 77.0475 30.9827C76.3874 31.2467 75.3537 31.577 73.9459 31.973C72.758 32.4569 71.966 33.1166 71.5699 33.9525C71.1739 34.7885 71.0414 35.6029 71.1734 36.3949C71.3054 37.1868 71.6581 37.8912 72.2301 38.5072C72.802 39.1229 73.4403 39.4524 74.1441 39.4964H74.2096C75.1335 39.4524 75.9256 39.2546 76.5855 38.9027C76.9375 38.7267 77.5542 38.639 78.4342 38.639C75.9262 47.7469 74.2536 56.1286 73.4176 63.7845C73.2416 64.4005 73.3302 64.9509 73.6822 65.4349C74.0343 65.9188 74.7163 66.4246 75.7281 66.9525C76.6136 67.4144 77.7011 67.7082 78.9908 67.8333L79.5562 67.8763C79.6011 67.8323 79.7991 67.7667 80.15 67.679C80.4469 67.646 80.7313 67.5753 81.0035 67.4681L81.2721 67.349C82.2401 66.8208 83.7802 63.4541 85.8922 57.2503C86.3871 55.8646 86.8693 54.4417 87.3394 52.9818L87.8062 51.5091C88.4222 49.4851 89.0155 47.5485 89.5875 45.7005C90.2035 43.8086 90.7539 42.0706 91.2379 40.4867C91.7659 38.8587 92.25 37.5163 92.69 36.4603V36.3949L93.0855 35.9329C94.7135 35.8449 97.4421 35.2731 101.27 34.2171C102.002 34.1786 102.615 33.921 103.111 33.4447L103.316 33.2269C103.844 32.6109 104.196 31.9504 104.372 31.2464C104.548 30.4985 104.526 29.7726 104.306 29.0687C104.086 28.3647 103.602 27.8805 102.854 27.6165C102.106 27.3086 101.468 27.1547 100.94 27.1546H100.016C99.6643 27.1546 99.2461 27.1107 98.7623 27.0228C97.9704 27.1108 97.2659 27.1985 96.65 27.2865C96.3861 27.3304 96.1219 27.3743 95.858 27.4183C95.594 27.4623 95.2638 27.5285 94.8678 27.6165C94.9997 27.3966 95.1323 27.2426 95.2643 27.1546C95.4402 27.0663 95.6382 26.736 95.858 26.1644L98.0357 21.6107C98.4756 20.6869 98.8274 19.9609 99.0914 19.4329C99.3994 18.8609 99.642 18.3544 99.818 17.9144C100.038 17.4745 100.236 17.0125 100.412 16.5286C100.577 16.1326 100.767 15.6004 100.981 14.932L101.204 14.2191C101.512 13.1631 101.358 12.1509 100.742 11.1829C100.17 10.215 99.4001 9.46679 98.4322 8.9388C97.6237 8.43826 96.7979 8.13952 95.9557 8.04329L95.5943 8.01497Z" fill="black"/>
<path d="M70.5836 7.22298C71.5095 7.27 72.3597 7.42955 73.0875 7.61555C74.5746 7.85119 76.2094 8.374 77.7564 9.41731C79.4447 10.5559 80.6751 12.0786 81.4684 13.765C83.3331 17.1781 83.0907 20.8457 81.8082 23.8382L81.8062 23.8372C80.7603 26.3408 78.9722 28.1095 77.1295 29.3685C77.3454 29.8178 77.5261 30.2728 77.6725 30.7318C77.4707 30.8117 77.2616 30.8941 77.0475 30.9827C76.3874 31.2467 75.3537 31.577 73.9459 31.973C72.758 32.4569 71.966 33.1166 71.5699 33.9525C71.4658 34.1723 71.3797 34.3909 71.3121 34.6077L70.1646 34.4808C70.3406 32.8969 69.5269 31.7532 67.7232 31.0491C65.9632 30.3891 64.0705 30.3229 62.0465 30.8509C59.8907 31.3789 58.5267 32.3687 57.9547 33.8206C56.6787 35.7566 55.3587 38.5506 53.9947 42.2025C51.1347 49.5944 49.353 55.6887 48.649 60.4847C47.9011 62.9926 48.1427 64.9946 49.3746 66.4906C49.9025 67.1065 50.5408 67.5683 51.2887 67.8763C52.0365 68.2282 52.7625 68.4046 53.4664 68.4046C54.2143 68.4486 54.8964 68.3384 55.5123 68.0745C56.0514 67.882 56.4557 67.5884 56.7252 67.1937L56.8326 67.0189C57.0636 66.5953 57.5644 66.3398 58.3346 66.2533L58.6812 66.2269C58.8792 66.2049 59.0826 66.1769 59.2916 66.1439L59.9352 66.0286C61.3787 65.7396 62.4358 63.8461 63.106 60.348L63.235 59.6263C63.466 57.4703 64.2698 53.9671 65.6461 49.1165L66.2711 46.9544C66.9311 44.6226 67.613 42.3564 68.317 40.1566C69.0649 37.9127 69.6807 36.0207 70.1646 34.4808L71.3121 34.6077C71.1226 35.2154 71.0761 35.8111 71.1734 36.3949C71.3054 37.1868 71.6581 37.8912 72.2301 38.5072C72.802 39.1229 73.4403 39.4524 74.1441 39.4964H74.2096C75.1335 39.4524 75.9256 39.2546 76.5855 38.9027C76.7408 38.8251 76.9478 38.7654 77.2057 38.722C76.8318 39.8802 76.4101 41.1725 75.9361 42.595L75.4332 44.1908C74.9341 45.799 74.4457 47.4464 73.9684 49.1331L73.9576 49.1732L73.9459 49.2122C72.1786 55.2209 71.3674 58.8142 71.1891 60.4788L71.1646 60.7113L71.1256 60.9417C70.7377 63.2687 70.1267 65.7271 69.026 67.8626C67.9606 69.9294 65.702 73.0337 61.5035 73.8734C61.4256 73.8889 61.3473 73.9025 61.2691 73.9173C60.3813 74.62 59.4199 75.1402 58.4664 75.5081C56.7167 76.2216 54.9259 76.4735 53.2154 76.4007C51.3096 76.3617 49.5651 75.8835 48.0387 75.1868C46.2044 74.3955 44.5999 73.2128 43.3004 71.6966L43.2496 71.637L43.1998 71.5765C41.2128 69.1637 40.3754 66.481 40.2477 63.8656C40.5422 63.738 40.8378 63.6017 41.1324 63.4544C41.6162 63.2784 42.0783 62.9489 42.5182 62.4652C42.9582 61.9812 43.4637 60.4186 44.0357 57.7786C44.6517 55.1387 45.9065 50.0349 47.7984 42.4671C48.8035 38.5263 50.2377 33.7189 52.1012 28.0452C53.1339 26.6807 54.394 25.637 55.7291 24.847C55.4428 24.2153 55.2062 23.5308 55.0377 22.7894L55.0289 22.7533L55.0211 22.7161C54.8304 21.8387 54.7526 20.9896 54.7672 20.1741C55.2813 18.6968 55.8181 17.1737 56.3775 15.6048C56.6835 14.9569 56.8397 14.364 56.8512 13.8265C57.0003 13.6043 57.1546 13.3904 57.3111 13.1839L57.5367 12.8841C59.8974 9.83676 63.1662 8.18836 66.5152 7.50325L66.9156 7.42122L67.3228 7.3802C68.2266 7.28983 69.2066 7.20833 70.0328 7.20833L70.5836 7.22298ZM70.0328 15.2083C69.6368 15.2083 68.9987 15.2531 68.1187 15.3411L67.7613 15.4202C66.0031 15.8456 64.6698 16.6769 63.7623 17.9144C62.9263 18.9704 62.6185 20.0049 62.8385 21.0169C63.0585 21.9849 63.8291 22.8208 65.149 23.5247C66.5129 24.2286 68.2727 24.3611 70.4283 23.9212C72.6283 22.9972 73.9706 21.9188 74.4547 20.6868C74.9826 19.4549 74.9387 18.355 74.3228 17.387C73.8829 16.2431 72.9368 15.605 71.485 15.473C70.913 15.297 70.4288 15.2083 70.0328 15.2083Z" fill="black"/>
<path d="M51.8902 2.52278C54.8533 2.52282 58.4645 3.23783 61.3756 5.93489H61.3765C61.3954 5.95212 61.4134 5.97026 61.4322 5.98763C61.4544 6.00842 61.4775 6.0291 61.4996 6.05013L61.4976 6.0511C63.2493 7.69946 64.5137 9.95249 64.7965 12.639C64.9786 14.3694 64.7186 15.946 64.2935 17.2884C64.1032 17.4844 63.9252 17.6922 63.7623 17.9144C62.9263 18.9704 62.6185 20.0049 62.8385 21.0169C62.8521 21.077 62.8675 21.1366 62.8853 21.1956C61.4764 25.207 60.2397 28.8643 59.1705 32.1722C58.6119 32.6323 58.2064 33.1816 57.9547 33.8206C56.6787 35.7566 55.3587 38.5506 53.9947 42.2025C51.1347 49.5944 49.353 55.6887 48.649 60.4847C47.901 62.9926 48.1427 64.9946 49.3746 66.4906C49.39 66.5085 49.4068 66.5256 49.4224 66.5433C49.1625 66.9537 48.839 67.404 48.4371 67.846C47.669 68.6909 46.6905 69.5457 45.4771 70.2298L44.3004 73.3685H41.7428C40.8108 73.9713 39.8691 74.4071 39.0269 74.7191C36.707 75.5783 34.2552 75.8997 31.7662 75.6331V75.6312C28.9072 75.3644 26.2373 74.2104 24.0797 72.1663V72.1654C24.0094 72.0989 23.9421 72.0305 23.8746 71.9632C23.7756 72.0376 23.6747 72.1099 23.5728 72.182L23.5738 72.1839C21.9673 73.3442 20.2008 74.1528 18.3531 74.6527C16.4994 75.1973 14.6001 75.4183 12.6959 75.3421H12.6832C10.8286 75.2648 8.92132 74.9061 7.07381 74.1283L6.93807 74.0706L6.80428 74.0081C4.66923 73.0151 2.31828 71.2577 0.981037 68.3158C-0.300859 65.4953 -0.147873 62.6905 0.430256 60.4827C2.46871 51.5435 4.41252 44.1944 6.27205 38.5228L6.28182 38.4945L6.29061 38.4661C8.10522 33.0666 9.60984 28.7517 10.7965 25.557L10.814 25.5101L10.8316 25.4642C11.9217 22.638 13.0502 19.6571 14.2183 16.5228C14.7229 13.9312 15.9416 11.6398 17.6685 9.74837L17.9615 9.43489C19.4417 7.88179 21.1433 6.59512 23.0318 5.58333L23.0836 5.55598L23.1344 5.52864C24.9928 4.56736 26.9558 3.86644 29.0074 3.44563L29.4166 3.35774C31.3348 2.96511 33.4291 2.82359 35.5719 3.19661L36.0318 3.2845L36.5347 3.40071C38.1903 3.81498 39.8789 4.58654 41.3433 5.83821C41.4995 5.72264 41.6585 5.60912 41.8209 5.49837C44.8314 3.44465 48.2794 2.65569 51.5826 2.52864L51.7359 2.52278H51.8902ZM51.8902 10.5228C47.3143 10.6988 44.4756 12.6345 43.3756 16.3304C41.8356 20.8183 40.4503 25.7467 39.2183 31.1146C38.9984 31.6425 38.8883 32.0166 38.8883 32.2366C37.7443 32.0607 35.8961 32.2585 33.3443 32.8304C31.9365 33.1384 30.7702 33.2708 29.8463 33.2269L31.6939 28.8704C32.2219 27.5506 32.8162 26.0549 33.4762 24.3831C34.1361 22.7112 35.2584 19.851 36.8424 15.8031C37.2824 14.3951 37.2376 13.3167 36.7096 12.5687C36.2255 11.8208 35.4559 11.3365 34.4 11.1165C33.344 10.8965 32.134 10.9404 30.7701 11.2484L30.2603 11.3568C29.0765 11.6311 27.9266 12.0576 26.8101 12.6351C25.5781 13.2951 24.4998 14.1309 23.5758 15.1429C22.6519 16.1548 22.1238 17.2987 21.9918 18.5745C20.7158 22.0065 19.4835 25.2631 18.2955 28.3431L17.8512 29.5511C16.778 32.4964 15.4521 36.3179 13.8736 41.015L13.5426 42.0423C11.8771 47.281 10.0953 54.0664 8.19783 62.3988C7.62585 64.4227 8.28631 65.8752 10.1783 66.7552C11.0142 67.1071 11.9604 67.305 13.0162 67.349C14.1161 67.3929 15.1722 67.2604 16.1842 66.9525C17.1961 66.6885 18.0983 66.2705 18.8902 65.6986C19.7261 65.1266 20.3419 64.3345 20.7379 63.3226C21.1338 62.3547 21.508 61.2108 21.8599 59.8909C22.2119 58.5709 22.6084 57.2948 23.0484 56.0628L26.2164 48.0111L26.8101 46.9544C27.6021 46.4705 28.6144 45.9862 29.8463 45.5023C30.3301 45.3263 30.8146 45.1509 31.2984 44.9749C31.8262 44.799 32.3321 44.6011 32.816 44.3812C33.2998 44.1173 33.6956 43.9409 34.0035 43.8529C34.3555 43.7649 34.7081 43.6324 35.0601 43.4564C34.6641 44.8644 34.1576 46.3831 33.5416 48.0111C32.9696 49.639 32.1775 51.9051 31.1656 54.8089C30.1537 57.6688 29.4279 60.3528 28.9879 62.8607C28.5919 64.4445 28.7898 65.6107 29.5816 66.3587C30.4176 67.1507 31.4298 67.591 32.6178 67.679C33.6957 67.7945 34.7571 67.6909 35.8013 67.3685L36.2476 67.2171C37.4356 66.7771 38.2062 66.1605 38.5582 65.3685H38.7564L38.859 65.1175C39.1092 64.5591 39.427 64.2032 39.8121 64.0491C40.2521 63.8731 40.6924 63.6744 41.1324 63.4544C41.5558 63.3004 41.9624 63.0287 42.3521 62.639L42.5181 62.4652C42.9581 61.9812 43.4637 60.4186 44.0357 57.7786C44.6517 55.1387 45.9065 50.0349 47.7984 42.4671C49.4704 35.9112 52.3296 26.9567 56.3775 15.6048C57.0787 14.1199 57.0072 12.9248 56.1617 12.0199L55.982 11.8431C55.0581 10.9631 53.6941 10.5228 51.8902 10.5228ZM34.3336 43.3909C33.9391 43.5224 33.7193 43.5888 33.6744 43.5892C33.8503 43.5452 34.0699 43.4788 34.3336 43.3909Z" fill="black"/>
</svg>
